<?xml version="1.0" encoding="utf-8"?>
<!-- Generator: Adobe Illustrator 16.0.1, SVG Export Plug-In . SVG Version: 6.00 Build 0)  -->
<!DOCTYPE svg PUBLIC "-//W3C//DTD SVG 1.1//EN" "http://www.w3.org/Graphics/SVG/1.1/DTD/svg11.dtd">
<svg version="1.1" id="Layer_1" xmlns="http://www.w3.org/2000/svg" xmlns:xlink="http://www.w3.org/1999/xlink" x="0px" y="0px"
	 width="500px" height="500px" viewBox="0 0 500 500" enable-background="new 0 0 500 500" xml:space="preserve">
<circle fill="#3D3D3D" cx="250" cy="250" r="250"/>
<path fill="#FFFFFF" d="M379.705,142.075c28.147,28.147,49.109,62.503,61.533,99.809c1.174-7.333,1.793-14.853,1.793-22.517
	c0-78.09-63.305-141.395-141.396-141.395c-8.04,0-15.919,0.681-23.594,1.971C316.062,92.285,351.094,113.462,379.705,142.075z"/>
<rect x="242.972" y="86.654" transform="matrix(0.7071 0.7071 -0.7071 0.7071 256.2534 -104.0708)" fill="#FFFFFF" width="21.547" height="341.243"/>
<path fill="#FFFFFF" d="M126.574,138.308c28.147-28.147,62.503-49.109,99.809-61.533c-7.333-1.174-14.853-1.793-22.517-1.793
	c-78.091,0-141.396,63.305-141.396,141.396c0,8.04,0.681,15.919,1.971,23.594C76.784,201.95,97.961,166.919,126.574,138.308z"/>
<rect x="237.002" y="86.645" transform="matrix(0.7071 -0.7071 0.7071 0.7071 -109.3435 250.5437)" fill="#FFFFFF" width="21.547" height="341.243"/>
</svg>
