<?xml version="1.0" encoding="utf-8"?>
<!-- Generator: Adobe Illustrator 16.0.1, SVG Export Plug-In . SVG Version: 6.00 Build 0)  -->
<!DOCTYPE svg PUBLIC "-//W3C//DTD SVG 1.1//EN" "http://www.w3.org/Graphics/SVG/1.1/DTD/svg11.dtd">
<svg version="1.1" id="Layer_1" xmlns="http://www.w3.org/2000/svg" xmlns:xlink="http://www.w3.org/1999/xlink" x="0px" y="0px"
	 width="500px" height="500px" viewBox="0 0 500 500" enable-background="new 0 0 500 500" xml:space="preserve">
<circle fill="#3D3D3D" cx="250" cy="250" r="250"/>
<g>
	<path fill="#FFFFFF" d="M250.917,290.759c-21.458,0-42.478-2.413-62.881-6.894c-2.574-0.119-5.153-0.157-7.724-0.304l-0.003,52.38
		c0.005,57.706,31.2,104.467,69.69,104.462c38.493,0.009,69.692-46.759,69.692-104.462l-0.008-52.853
		c-0.92,0.044-1.833,0.073-2.761,0.122C295.544,288.146,273.471,290.752,250.917,290.759z"/>
	<rect x="236" y="99" fill="#FFFFFF" width="26" height="198"/>
	<path fill="#FFFFFF" d="M283,81.997c0-4.893-3.966-8.997-8.858-8.997h-48.654c-4.893,0-8.488,4.104-8.488,8.997v0.281
		c0,0.482-0.137,0.952-0.062,1.413c-0.04-0.004-0.172-0.006-0.212-0.01c0,0.048-0.05,0.152-0.05,0.201
		c0,17.707,14.308,32.118,32.014,32.118h2.25C268.646,116,283,101.589,283,83.882c0-0.229-0.012-0.484-0.018-0.711
		c-0.009,0.001-0.018-0.013-0.026-0.012c0.027-0.286,0.044-0.589,0.044-0.881V81.997z"/>
	<path fill="#3D3D3D" d="M263,89.53c0-2.062-1.921-3.53-3.984-3.53h-20.513c-2.063,0-3.502,1.467-3.502,3.53v0.119
		c0,0.203-0.096,0.401-0.064,0.596c-0.017-0.002-0.092-0.003-0.109-0.004c0,0.02-0.031,0.13-0.031,0.151
		c0,7.466,6.023,13.608,13.489,13.608h0.948c7.466,0,13.518-6.143,13.518-13.608c0-0.096-0.004-0.237-0.007-0.333
		c-0.004,0,0.115-0.023,0.113-0.022c0.012-0.121,0.143-0.265,0.143-0.388V89.53z"/>
</g>
</svg>
