<?xml version="1.0" encoding="utf-8"?>
<!-- Generator: Adobe Illustrator 16.0.3, SVG Export Plug-In . SVG Version: 6.00 Build 0)  -->
<!DOCTYPE svg PUBLIC "-//W3C//DTD SVG 1.1//EN" "http://www.w3.org/Graphics/SVG/1.1/DTD/svg11.dtd">
<svg version="1.1" id="Layer_1" xmlns="http://www.w3.org/2000/svg" xmlns:xlink="http://www.w3.org/1999/xlink" x="0px" y="0px"
	 width="4000px" height="400px" viewBox="0 0 4000 400" enable-background="new 0 0 4000 400" xml:space="preserve">
<circle fill="#8EBEE6" cx="1517.313" cy="151.715" r="33.285"/>
<circle fill="#8EBEE6" cx="1653.265" cy="151.715" r="33.285"/>
<rect x="1517" y="118" fill="#8EBEE6" width="137" height="67"/>
<circle fill="#8EBEE6" cx="1627.41" cy="112.942" r="36.396"/>
<circle fill="#8EBEE6" cx="1559.652" cy="106.206" r="51.057"/>
<circle fill="#8EBEE6" cx="116.726" cy="268.403" r="39.726"/>
<circle fill="#8EBEE6" cx="278.989" cy="268.403" r="39.726"/>
<rect x="117" y="229" fill="#8EBEE6" width="163" height="79"/>
<circle fill="#8EBEE6" cx="248.131" cy="222.127" r="43.439"/>
<circle fill="#8EBEE6" cx="167.26" cy="214.086" r="60.938"/>
<circle fill="#8EBEE6" cx="2418.503" cy="110.546" r="31.503"/>
<circle fill="#8EBEE6" cx="2547.177" cy="110.546" r="31.503"/>
<rect x="2419" y="79" fill="#8EBEE6" width="128" height="63"/>
<circle fill="#8EBEE6" cx="2522.707" cy="73.848" r="34.447"/>
<circle fill="#8EBEE6" cx="2458.576" cy="67.472" r="48.324"/>
<circle fill="#8EBEE6" cx="3077" cy="305" r="42"/>
<circle fill="#8EBEE6" cx="3248.549" cy="305" r="42"/>
<rect x="3077" y="263" fill="#8EBEE6" width="172" height="84"/>
<circle fill="#8EBEE6" cx="3215.926" cy="256.074" r="45.926"/>
<circle fill="#8EBEE6" cx="3130.426" cy="247.574" r="64.426"/>
<circle fill="#8EBEE6" cx="681.919" cy="138.309" r="35.919"/>
<circle fill="#8EBEE6" cx="828.63" cy="138.309" r="35.919"/>
<rect x="682" y="102" fill="#8EBEE6" width="147" height="72"/>
<circle fill="#8EBEE6" cx="760.171" cy="67.754" r="45.754"/>
<circle fill="#8EBEE6" cx="707.148" cy="87.424" r="36.346"/>
<circle fill="#8EBEE6" cx="805.497" cy="102.818" r="36.346"/>
<circle fill="#8EBEE6" cx="1993" cy="279" r="42"/>
<circle fill="#8EBEE6" cx="2164.549" cy="279" r="42"/>
<rect x="1993" y="237" fill="#8EBEE6" width="172" height="84"/>
<circle fill="#8EBEE6" cx="2084.5" cy="196.5" r="53.5"/>
<circle fill="#8EBEE6" cx="2022.5" cy="219.5" r="42.5"/>
<circle fill="#8EBEE6" cx="2137.5" cy="237.5" r="42.5"/>
<circle fill="#8EBEE6" cx="3530.37" cy="173.087" r="30.914"/>
<circle fill="#8EBEE6" cx="3656.636" cy="173.087" r="30.913"/>
<rect x="3531" y="142" fill="#8EBEE6" width="126" height="62"/>
<circle fill="#8EBEE6" cx="3597.716" cy="112.364" r="39.377"/>
<circle fill="#8EBEE6" cx="3552.083" cy="129.293" r="31.282"/>
<circle fill="#8EBEE6" cx="3636.727" cy="142.541" r="31.281"/>
</svg>
