<?xml version="1.0" encoding="utf-8"?>
<!-- Generator: Adobe Illustrator 16.0.1, SVG Export Plug-In . SVG Version: 6.00 Build 0)  -->
<!DOCTYPE svg PUBLIC "-//W3C//DTD SVG 1.1//EN" "http://www.w3.org/Graphics/SVG/1.1/DTD/svg11.dtd">
<svg version="1.1" id="Layer_1" xmlns="http://www.w3.org/2000/svg" xmlns:xlink="http://www.w3.org/1999/xlink" x="0px" y="0px"
	 width="612px" height="792px" viewBox="0 0 612 792" enable-background="new 0 0 612 792" xml:space="preserve">
<g>
	<path fill="#8EBFE7" stroke="#000000" stroke-miterlimit="10" d="M554.506,501.112c0.532-1.258,1.04-2.528,1.554-3.796h-1.554
		V501.112z"/>
	<path fill="#8EBFE7" d="M209.588,341.197l55.531,48.776l19.43-17.068l141.641-124.412L567.83,372.905l7.399,6.5
		C566.654,238.156,449.405,126.248,306,126.248c-148.98,0-269.753,120.772-269.753,269.753c0,29.826,4.852,58.518,13.791,85.34
		l17.909-15.732L209.588,341.197z"/>
	<path fill="#FFFFFF" d="M306,665.753c111.692,0,207.528-67.883,248.506-164.641v-3.796h1.554
		c12.688-31.283,19.693-65.479,19.693-101.315c0-5.575-0.189-11.104-0.523-16.595l-7.399-6.5L426.189,248.494L284.549,372.905
		l-19.43,17.068l-55.531-48.776L67.947,465.608l-17.909,15.732C85.748,588.493,186.846,665.753,306,665.753z"/>
</g>
</svg>
