<?xml version="1.0" encoding="utf-8"?>
<!-- Generator: Adobe Illustrator 16.0.1, SVG Export Plug-In . SVG Version: 6.00 Build 0)  -->
<!DOCTYPE svg PUBLIC "-//W3C//DTD SVG 1.1//EN" "http://www.w3.org/Graphics/SVG/1.1/DTD/svg11.dtd">
<svg version="1.1" id="Layer_1" xmlns="http://www.w3.org/2000/svg" xmlns:xlink="http://www.w3.org/1999/xlink" x="0px" y="0px"
	 width="500px" height="200px" viewBox="0 0 500 200" enable-background="new 0 0 500 200" xml:space="preserve">
<polygon fill="#8EBFE7" points="483.784,217.048 500.048,200.784 427.216,127.952 427,128.168 426.784,127.952 397.94,156.796 
	333.156,92.012 333,92.168 332.784,91.952 296.156,128.58 206.164,38.588 205.833,38.918 205.502,38.588 94.677,149.414 
	73.216,127.952 73,128.168 72.784,127.952 -0.048,200.784 16.216,217.048 32.264,201 113.736,201 129.784,217.048 145.832,201 
	354.168,201 370.216,217.048 386.264,201 397.855,201 410.178,213.322 422.5,201 467.736,201 "/>
</svg>
