<?xml version="1.0" encoding="utf-8"?>
<!-- Generator: Adobe Illustrator 16.0.1, SVG Export Plug-In . SVG Version: 6.00 Build 0)  -->
<!DOCTYPE svg PUBLIC "-//W3C//DTD SVG 1.1//EN" "http://www.w3.org/Graphics/SVG/1.1/DTD/svg11.dtd">
<svg version="1.1" id="Layer_1" xmlns="http://www.w3.org/2000/svg" xmlns:xlink="http://www.w3.org/1999/xlink" x="0px" y="0px"
	 width="1440px" height="200px" viewBox="0 0 1440 200" enable-background="new 0 0 1440 200" xml:space="preserve">
<path fill="#8EBFE7" d="M1447.271,206.591l-46.871-46.87l-0.126,0.125l-0.125-0.125l-24.454,24.455l-44.213-44.212l-0.165,0.164
	l-0.164-0.164l-31.619,31.62l-71.795-71.795l-0.266,0.266l-0.266-0.266l-45.65,45.651l-68.975-68.974l-0.216,0.216l-0.216-0.216
	l-25.484,25.485l-35.621-35.62l-0.215,0.216l-0.217-0.216l-63.268,63.268l-70.313-70.314l-0.367,0.367l-0.367-0.367l-63.057,63.057
	l-95.274-95.273l-0.298,0.298l-0.299-0.298L722.17,62.269l-49.202-49.201l-0.298,0.298l-0.298-0.298L561.17,124.269l-49.202-49.201
	l-0.298,0.298l-0.298-0.298l-16.702,16.702l-44.702-44.702l-0.298,0.298l-0.298-0.298l-78.48,78.479l-40.495-40.493L330.15,85.3
	l-0.246-0.246l-91.667,91.667l-40.559-40.559l-0.246,0.246l-0.246-0.246l-13.768,13.769l-36.849-36.85l-0.246,0.246l-0.246-0.246
	l-74.227,74.227l-28.065-28.064l-0.231,0.231l-0.232-0.231l-86.268,86.269l2.366,2.366c-0.792,0.445-1.6,0.854-2.422,1.222V268h824
	v-19.424c0-0.444-1.318-0.905-2.049-1.375l2.606-2.44L771.797,235H1220v-8h227v-17.059c-1-0.391-1.268-0.795-1.908-1.208
	L1447.271,206.591z"/>
</svg>
