<?xml version="1.0" encoding="utf-8"?>
<!-- Generator: Adobe Illustrator 16.0.1, SVG Export Plug-In . SVG Version: 6.00 Build 0)  -->
<!DOCTYPE svg PUBLIC "-//W3C//DTD SVG 1.1//EN" "http://www.w3.org/Graphics/SVG/1.1/DTD/svg11.dtd">
<svg version="1.1" id="Layer_1" xmlns="http://www.w3.org/2000/svg" xmlns:xlink="http://www.w3.org/1999/xlink" x="0px" y="0px"
	 width="500px" height="500px" viewBox="0 0 500 500" enable-background="new 0 0 500 500" xml:space="preserve">
<circle fill="#3D3D3D" cx="250" cy="250" r="250"/>
<g>
	<path fill="#FFFFFF" d="M328.464,224.777c-21.433,0.236-38.447,34.474-38.001,76.493c0.075,7.025,0.663,13.805,1.643,20.249
		c5.031-0.202,10.078-0.36,15.124-0.418c6.278-0.064,12.548,0.021,18.807,0.185c6.438-0.321,12.895-0.521,19.364-0.593
		c7.174-0.076,14.33,0.027,21.476,0.258c0.856-6.538,1.289-13.413,1.216-20.511C367.641,258.428,349.9,224.552,328.464,224.777z"/>
	<path fill="#FFFFFF" d="M331.722,348.982c-11.593,0.13-23.169-0.126-34.711-0.732c-0.009,0.575-0.003,1.963-0.002,2.535
		c0.308,28.209,12.075,51.75,26.281,51.595l14.146-0.149c14.205-0.147,25.47-23.938,25.169-52.146
		c-0.007-0.504-0.029-1.398-0.042-1.906C352.311,348.867,342.026,348.876,331.722,348.982z"/>
</g>
<g>
	<path fill="#FFFFFF" d="M178.464,65.777c-21.433,0.236-38.447,34.474-38.001,76.493c0.075,7.025,0.663,13.805,1.643,20.249
		c5.031-0.202,10.078-0.36,15.124-0.418c6.278-0.064,12.548,0.021,18.807,0.185c6.438-0.321,12.895-0.521,19.364-0.593
		c7.174-0.076,14.33,0.027,21.476,0.258c0.856-6.538,1.289-13.413,1.216-20.511C217.641,99.428,199.9,65.552,178.464,65.777z"/>
	<path fill="#FFFFFF" d="M181.722,189.982c-11.593,0.13-23.169-0.126-34.711-0.732c-0.009,0.575-0.003,1.963-0.002,2.535
		c0.308,28.209,12.075,51.75,26.281,51.595l14.146-0.149c14.205-0.147,25.47-23.938,25.169-52.146
		c-0.007-0.504-0.029-1.398-0.042-1.906C202.311,189.867,192.026,189.876,181.722,189.982z"/>
</g>
</svg>
